<svg width="20" height="22" viewBox="0 0 20 22" fill="none" xmlns="http://www.w3.org/2000/svg">
<path d="M9.76202 3.41989L8.17386 3.41665C4.55119 3.40798 1.40627 6.3514 1.38136 9.91665V14.0225C1.38136 14.8783 1.27302 15.7136 0.806106 16.4253L0.495189 16.8998C0.0217722 17.6191 0.530939 18.5833 1.38136 18.5833H16.5805C17.4309 18.5833 17.939 17.6191 17.4667 16.8998L17.1558 16.4253C16.6899 15.7136 16.5805 14.8772 16.5805 14.0214V9.91773C16.5372 6.3514 13.3847 3.42856 9.76202 3.41989Z" fill="#BEBEC2"/>
<path d="M12.231 18.5833C12.231 19.4453 11.8885 20.2719 11.2791 20.8814C10.6696 21.4909 9.84291 21.8333 8.98096 21.8333C8.119 21.8333 7.29235 21.4909 6.68286 20.8814C6.07337 20.2719 5.73096 19.4453 5.73096 18.5833" fill="#6F6E73"/>
<path d="M8.98095 0.166687C9.55559 0.166687 10.1067 0.39496 10.513 0.801289C10.9193 1.20762 11.1476 1.75872 11.1476 2.33335V3.41669H6.81429V2.33335C6.81429 1.75872 7.04256 1.20762 7.44889 0.801289C7.85522 0.39496 8.40632 0.166687 8.98095 0.166687Z" fill="#6F6E73"/>
<circle cx="15.481" cy="7.75" r="3.75" fill="#DD736D" stroke="#F5F5F5"/>
</svg>
