<svg width="22" height="22" viewBox="0 0 22 22" fill="none" xmlns="http://www.w3.org/2000/svg">
<path d="M13.1476 1.54144C13.1476 0.78202 12.5323 0.166687 11.7729 0.166687H10.1901C9.42963 0.166687 8.8143 0.78202 8.8143 1.54144C8.8143 2.1676 8.3853 2.70494 7.80138 2.9346C7.7093 2.97144 7.61721 3.01044 7.5273 3.04944C6.95205 3.2986 6.26846 3.22277 5.8243 2.77969C5.56651 2.52208 5.21698 2.37738 4.85255 2.37738C4.48811 2.37738 4.13858 2.52208 3.8808 2.77969L2.76063 3.89985C2.50302 4.15764 2.35832 4.50717 2.35832 4.8716C2.35832 5.23604 2.50302 5.58557 2.76063 5.84335V5.84335C3.2048 6.28752 3.28063 6.97002 3.0293 7.54635C2.98981 7.63705 2.95188 7.72843 2.91555 7.82044C2.68588 8.40435 2.14855 8.83335 1.52238 8.83335C0.762962 8.83335 0.147629 9.44869 0.147629 10.2081V11.7919C0.147629 12.5514 0.762962 13.1667 1.52238 13.1667C2.14855 13.1667 2.68588 13.5957 2.91555 14.1796C2.95238 14.2717 2.99138 14.3638 3.0293 14.4537C3.27955 15.0289 3.20371 15.7125 2.76063 16.1567C2.50302 16.4145 2.35832 16.764 2.35832 17.1284C2.35832 17.4929 2.50302 17.8424 2.76063 18.1002L3.8808 19.2204C4.13858 19.478 4.48811 19.6227 4.85255 19.6227C5.21698 19.6227 5.56651 19.478 5.8243 19.2204C6.26846 18.7762 6.95096 18.7004 7.5273 18.9506C7.61721 18.9907 7.7093 19.0286 7.80138 19.0654C8.3853 19.2951 8.8143 19.8324 8.8143 20.4586C8.8143 21.218 9.42963 21.8334 10.189 21.8334H11.7729C12.5323 21.8334 13.1476 21.218 13.1476 20.4586C13.1476 19.8324 13.5766 19.2951 14.1605 19.0644C14.2526 19.0286 14.3447 18.9907 14.4346 18.9517C15.0099 18.7004 15.6935 18.7773 16.1365 19.2204C16.2642 19.3481 16.4158 19.4494 16.5826 19.5185C16.7494 19.5876 16.9283 19.6232 17.1088 19.6232C17.2894 19.6232 17.4682 19.5876 17.6351 19.5185C17.8019 19.4494 17.9535 19.3481 18.0811 19.2204L19.2013 18.1002C19.4589 17.8424 19.6036 17.4929 19.6036 17.1284C19.6036 16.764 19.4589 16.4145 19.2013 16.1567V16.1567C18.7571 15.7125 18.6813 15.03 18.9315 14.4537C18.9716 14.3638 19.0095 14.2717 19.0464 14.1796C19.276 13.5957 19.8134 13.1667 20.4395 13.1667C21.199 13.1667 21.8143 12.5514 21.8143 11.7919V10.2092C21.8143 9.44977 21.199 8.83444 20.4395 8.83444C19.8134 8.83444 19.276 8.40544 19.0453 7.82152C19.009 7.7295 18.9711 7.63812 18.9315 7.54744C18.6824 6.97219 18.7582 6.2886 19.2013 5.84444C19.4589 5.58665 19.6036 5.23712 19.6036 4.87269C19.6036 4.50825 19.4589 4.15872 19.2013 3.90094L18.0811 2.78077C17.8233 2.52317 17.4738 2.37846 17.1094 2.37846C16.7449 2.37846 16.3954 2.52317 16.1376 2.78077V2.78077C15.6935 3.22494 15.011 3.30077 14.4346 3.05052C14.3439 3.01066 14.2526 2.97238 14.1605 2.93569C13.5766 2.70494 13.1476 2.1676 13.1476 1.54252V1.54144Z" fill="#BEBEC2"/>
<path d="M15.3143 11C15.3143 12.1493 14.8578 13.2515 14.0451 14.0642C13.2324 14.8768 12.1302 15.3334 10.981 15.3334C9.83169 15.3334 8.72949 14.8768 7.91683 14.0642C7.10417 13.2515 6.64763 12.1493 6.64763 11C6.64763 9.85075 7.10417 8.74855 7.91683 7.93589C8.72949 7.12323 9.83169 6.66669 10.981 6.66669C12.1302 6.66669 13.2324 7.12323 14.0451 7.93589C14.8578 8.74855 15.3143 9.85075 15.3143 11V11Z" fill="#6F6E73"/>
</svg>
