<svg width="20" height="20" viewBox="0 0 20 20" fill="none" xmlns="http://www.w3.org/2000/svg">
<path d="M18.3143 16.6666V10.145C18.3143 9.69125 18.2218 9.24229 18.0422 8.82559C17.8627 8.4089 17.5999 8.03325 17.2701 7.72165L11.126 1.91498C10.8165 1.62242 10.4068 1.45941 9.98096 1.45941C9.55511 1.45941 9.14541 1.62242 8.83596 1.91498L2.6918 7.72165C2.36198 8.03325 2.09926 8.4089 1.91971 8.82559C1.74017 9.24229 1.64758 9.69125 1.64763 10.145V16.6666C1.64763 17.1087 1.82323 17.5326 2.13579 17.8452C2.44835 18.1577 2.87227 18.3333 3.3143 18.3333H16.6476C17.0897 18.3333 17.5136 18.1577 17.8261 17.8452C18.1387 17.5326 18.3143 17.1087 18.3143 16.6666Z" stroke="#6F6E73" stroke-width="2" stroke-linecap="round" stroke-linejoin="round"/>
</svg>
